<svg width="29" height="28" viewBox="0 0 29 28" fill="none" xmlns="http://www.w3.org/2000/svg">
<path d="M14.94 4.24683C12.5654 4.24692 10.2684 5.09194 8.45993 6.63067C6.65144 8.16941 5.44947 10.3014 5.0691 12.6453C4.68873 14.9892 5.15479 17.3919 6.38387 19.4236C7.61295 21.4553 9.52486 22.9833 11.7775 23.7343C12.2775 23.8218 12.465 23.5218 12.465 23.2593C12.465 23.0218 12.4525 22.2343 12.4525 21.3968C9.93997 21.8593 9.28997 20.7844 9.08997 20.2219C8.86804 19.6748 8.51624 19.19 8.06497 18.8093C7.71497 18.6218 7.21497 18.1593 8.05246 18.1468C8.37225 18.1815 8.67896 18.2928 8.9466 18.4712C9.21424 18.6497 9.43493 18.89 9.58997 19.1718C9.72674 19.4175 9.91065 19.6338 10.1312 19.8083C10.3517 19.9828 10.6044 20.1121 10.875 20.1887C11.1456 20.2654 11.4286 20.2879 11.7078 20.2549C11.9871 20.222 12.2571 20.1343 12.5024 19.9968C12.5457 19.4884 12.7723 19.0131 13.14 18.6594C10.915 18.4094 8.58997 17.5468 8.58997 13.7219C8.57592 12.728 8.94265 11.7664 9.61497 11.0344C9.30925 10.1706 9.34502 9.22264 9.71497 8.38436C9.71497 8.38436 10.5524 8.12185 12.465 9.40936C14.1013 8.95933 15.8287 8.95933 17.465 9.40936C19.3774 8.10936 20.215 8.38436 20.215 8.38436C20.585 9.22263 20.6207 10.1706 20.315 11.0344C20.9893 11.7652 21.3564 12.7276 21.34 13.7219C21.34 17.5593 19.0024 18.4094 16.7775 18.6594C17.0161 18.9012 17.1999 19.1917 17.3164 19.5109C17.4329 19.8301 17.4793 20.1706 17.4525 20.5094C17.4525 21.8469 17.44 22.9218 17.44 23.2594C17.44 23.5219 17.6275 23.8344 18.1275 23.7344C20.3761 22.9772 22.2825 21.4456 23.5064 19.4129C24.7302 17.3802 25.1919 14.9787 24.8088 12.6371C24.4258 10.2955 23.2231 8.1662 21.4154 6.62934C19.6077 5.09248 17.3127 4.24806 14.94 4.24683V4.24683Z" fill="white"/>
</svg>
