<svg width="28" height="28" viewBox="0 0 28 28" fill="none" xmlns="http://www.w3.org/2000/svg">
<path d="M22.4699 4.00014H5.52994C5.33951 3.9975 5.15044 4.03239 4.9735 4.10282C4.79657 4.17326 4.63524 4.27786 4.49873 4.41065C4.36223 4.54344 4.25322 4.70182 4.17793 4.87675C4.10264 5.05167 4.06254 5.23972 4.05994 5.43014V22.5701C4.06254 22.7606 4.10264 22.9486 4.17793 23.1235C4.25322 23.2985 4.36223 23.4568 4.49873 23.5896C4.63524 23.7224 4.79657 23.827 4.9735 23.8975C5.15044 23.9679 5.33951 24.0028 5.52994 24.0001H22.4699C22.6604 24.0028 22.8494 23.9679 23.0264 23.8975C23.2033 23.827 23.3646 23.7224 23.5011 23.5896C23.6376 23.4568 23.7467 23.2985 23.8219 23.1235C23.8972 22.9486 23.9373 22.7606 23.9399 22.5701V5.43014C23.9373 5.23972 23.8972 5.05167 23.8219 4.87675C23.7467 4.70182 23.6376 4.54344 23.5011 4.41065C23.3646 4.27786 23.2033 4.17326 23.0264 4.10282C22.8494 4.03239 22.6604 3.9975 22.4699 4.00014V4.00014ZM10.0899 20.7401H7.08994V11.7401H10.0899V20.7401ZM8.58994 10.4801C8.1762 10.4801 7.77941 10.3158 7.48685 10.0232C7.19429 9.73067 7.02994 9.33388 7.02994 8.92014C7.02994 8.5064 7.19429 8.10961 7.48685 7.81705C7.77941 7.5245 8.1762 7.36014 8.58994 7.36014C8.80963 7.33522 9.03211 7.35699 9.24281 7.42402C9.45351 7.49105 9.64768 7.60183 9.81259 7.7491C9.97751 7.89637 10.1095 8.07682 10.1998 8.27862C10.2902 8.48043 10.3369 8.69904 10.3369 8.92014C10.3369 9.14124 10.2902 9.35985 10.1998 9.56166C10.1095 9.76346 9.97751 9.94391 9.81259 10.0912C9.64768 10.2385 9.45351 10.3492 9.24281 10.4163C9.03211 10.4833 8.80963 10.5051 8.58994 10.4801V10.4801ZM20.9099 20.7401H17.9099V15.9101C17.9099 14.7001 17.4799 13.9101 16.3899 13.9101C16.0526 13.9126 15.7241 14.0184 15.4488 14.2133C15.1734 14.4082 14.9644 14.6828 14.8499 15.0001C14.7717 15.2352 14.7378 15.4827 14.7499 15.7301V20.7301H11.7499C11.7499 20.7301 11.7499 12.5501 11.7499 11.7301H14.7499V13.0001C15.0225 12.5272 15.4188 12.1377 15.8964 11.8733C16.3739 11.609 16.9145 11.48 17.4599 11.5001C19.4599 11.5001 20.9099 12.7901 20.9099 15.5601V20.7401Z" fill="white"/>
</svg>
